<svg xmlns="http://www.w3.org/2000/svg" width="18" height="18" viewBox="0 0 18 18" fill="none">
  <path
    d="M17.8732 0.885557C17.7632 0.621543 17.5826 0.397134 17.3536 0.239837C17.1245 0.0825407 16.857 -0.000808605 16.5837 5.91319e-06H1.4105C1.13732 0.00232514 0.870552 0.0876541 0.64211 0.245786C0.413668 0.403918 0.233222 0.628159 0.122355 0.891686C0.0114885 1.15521 -0.0251052 1.44687 0.0169511 1.73177C0.0590073 2.01667 0.177933 2.28275 0.359504 2.49819L6.1709 9.2377V16.5085C6.17046 16.7791 6.24019 17.0446 6.37252 17.2763C6.50485 17.5079 6.69474 17.697 6.92161 17.8229C7.12586 17.9368 7.35298 17.9976 7.584 18C7.86385 18.0001 8.13742 17.9125 8.37004 17.7483L11.1962 15.7535C11.3898 15.6177 11.5484 15.4334 11.6579 15.217C11.7673 15.0007 11.8242 14.759 11.8233 14.5137V9.2377L17.6347 2.49819C17.8196 2.28353 17.9408 2.0163 17.9832 1.72964C18.0256 1.44298 17.9873 1.14949 17.8732 0.885557Z"
    fill="white" />
</svg>