<svg width="24" height="24" viewBox="0 0 24 24" fill="none" xmlns="http://www.w3.org/2000/svg">
<path d="M7.78613 5.0376H23.0208" stroke="#007EAE" stroke-linecap="round"/>
<path d="M7.78613 12H23.0208" stroke="#007EAE" stroke-linecap="round"/>
<path d="M7.78613 18.9619H23.0208" stroke="#007EAE" stroke-linecap="round"/>
<path fill-rule="evenodd" clip-rule="evenodd" d="M4.31785 5.03786C4.31785 5.95935 3.57036 6.70605 2.64844 6.70605C1.72652 6.70605 0.97998 5.95935 0.97998 5.03786C0.97998 4.11636 1.72652 3.37061 2.64844 3.37061C3.57036 3.37061 4.31785 4.11636 4.31785 5.03786Z" stroke="#007EAE" stroke-linecap="round"/>
<path fill-rule="evenodd" clip-rule="evenodd" d="M4.31785 11.9997C4.31785 12.9212 3.57036 13.6679 2.64844 13.6679C1.72652 13.6679 0.97998 12.9212 0.97998 11.9997C0.97998 11.0782 1.72652 10.3315 2.64844 10.3315C3.57036 10.3315 4.31785 11.0782 4.31785 11.9997Z" stroke="#007EAE" stroke-linecap="round"/>
<path fill-rule="evenodd" clip-rule="evenodd" d="M4.31785 18.9621C4.31785 19.8836 3.57036 20.6294 2.64844 20.6294C1.72652 20.6294 0.97998 19.8836 0.97998 18.9621C0.97998 18.0406 1.72652 17.2939 2.64844 17.2939C3.57036 17.2939 4.31785 18.0406 4.31785 18.9621Z" stroke="#007EAE" stroke-linecap="round"/>
</svg>
